<?xml version="1.0" encoding="iso-8859-1"?>
<svg fill="#000000" height="20" width="20" version="1.1" id="Capa_1"
  xmlns="http://www.w3.org/2000/svg"
  xmlns:xlink="http://www.w3.org/1999/xlink" viewBox="0 0 463 463" xml:space="preserve">
  <g>
    <path d="M311.5,408h-160c-4.143,0-7.5,3.358-7.5,7.5s3.357,7.5,7.5,7.5h160c4.143,0,7.5-3.358,7.5-7.5S315.643,408,311.5,408z"/>
    <path d="M223.5,376c-4.143,0-7.5,3.358-7.5,7.5s3.357,7.5,7.5,7.5h16c4.143,0,7.5-3.358,7.5-7.5s-3.357-7.5-7.5-7.5H223.5z"/>
    <path d="M271.5,376c-4.143,0-7.5,3.358-7.5,7.5s3.357,7.5,7.5,7.5h16c4.143,0,7.5-3.358,7.5-7.5s-3.357-7.5-7.5-7.5H271.5z"/>
    <path d="M343,383.5c0-4.142-3.357-7.5-7.5-7.5h-16c-4.143,0-7.5,3.358-7.5,7.5s3.357,7.5,7.5,7.5h16
		C339.643,391,343,387.642,343,383.5z"/>
    <path d="M383.5,376h-16c-4.143,0-7.5,3.358-7.5,7.5s3.357,7.5,7.5,7.5h16c4.143,0,7.5-3.358,7.5-7.5S387.643,376,383.5,376z"/>
    <path d="M103,383.5c0-4.142-3.357-7.5-7.5-7.5h-16c-4.143,0-7.5,3.358-7.5,7.5s3.357,7.5,7.5,7.5h16
		C99.643,391,103,387.642,103,383.5z"/>
    <path d="M151,383.5c0-4.142-3.357-7.5-7.5-7.5h-16c-4.143,0-7.5,3.358-7.5,7.5s3.357,7.5,7.5,7.5h16
		C147.643,391,151,387.642,151,383.5z"/>
    <path d="M175.5,376c-4.143,0-7.5,3.358-7.5,7.5s3.357,7.5,7.5,7.5h16c4.143,0,7.5-3.358,7.5-7.5s-3.357-7.5-7.5-7.5H175.5z"/>
    <path d="M223.5,327h16c4.143,0,7.5-3.358,7.5-7.5s-3.357-7.5-7.5-7.5h-16c-4.143,0-7.5,3.358-7.5,7.5S219.357,327,223.5,327z"/>
    <path d="M271.5,327h16c4.143,0,7.5-3.358,7.5-7.5s-3.357-7.5-7.5-7.5h-16c-4.143,0-7.5,3.358-7.5,7.5S267.357,327,271.5,327z"/>
    <path d="M319.5,327h16c4.143,0,7.5-3.358,7.5-7.5s-3.357-7.5-7.5-7.5h-16c-4.143,0-7.5,3.358-7.5,7.5S315.357,327,319.5,327z"/>
    <path d="M367.5,327h16c4.143,0,7.5-3.358,7.5-7.5s-3.357-7.5-7.5-7.5h-16c-4.143,0-7.5,3.358-7.5,7.5S363.357,327,367.5,327z"/>
    <path d="M79.5,327h16c4.143,0,7.5-3.358,7.5-7.5s-3.357-7.5-7.5-7.5h-16c-4.143,0-7.5,3.358-7.5,7.5S75.357,327,79.5,327z"/>
    <path d="M127.5,327h16c4.143,0,7.5-3.358,7.5-7.5s-3.357-7.5-7.5-7.5h-16c-4.143,0-7.5,3.358-7.5,7.5S123.357,327,127.5,327z"/>
    <path d="M175.5,327h16c4.143,0,7.5-3.358,7.5-7.5s-3.357-7.5-7.5-7.5h-16c-4.143,0-7.5,3.358-7.5,7.5S171.357,327,175.5,327z"/>
    <path d="M240,351.5c0,4.142,3.357,7.5,7.5,7.5h16c4.143,0,7.5-3.358,7.5-7.5s-3.357-7.5-7.5-7.5h-16
		C243.357,344,240,347.358,240,351.5z"/>
    <path d="M288,351.5c0,4.142,3.357,7.5,7.5,7.5h16c4.143,0,7.5-3.358,7.5-7.5s-3.357-7.5-7.5-7.5h-16
		C291.357,344,288,347.358,288,351.5z"/>
    <path d="M336,351.5c0,4.142,3.357,7.5,7.5,7.5h16c4.143,0,7.5-3.358,7.5-7.5s-3.357-7.5-7.5-7.5h-16
		C339.357,344,336,347.358,336,351.5z"/>
    <path d="M96,351.5c0,4.142,3.357,7.5,7.5,7.5h16c4.143,0,7.5-3.358,7.5-7.5s-3.357-7.5-7.5-7.5h-16C99.357,344,96,347.358,96,351.5
		z"/>
    <path d="M79,351.5c0-4.142-3.357-7.5-7.5-7.5h-16c-4.143,0-7.5,3.358-7.5,7.5s3.357,7.5,7.5,7.5h16C75.643,359,79,355.642,79,351.5
		z"/>
    <path d="M407.5,344h-16c-4.143,0-7.5,3.358-7.5,7.5s3.357,7.5,7.5,7.5h16c4.143,0,7.5-3.358,7.5-7.5S411.643,344,407.5,344z"/>
    <path d="M359.5,408h-16c-4.143,0-7.5,3.358-7.5,7.5s3.357,7.5,7.5,7.5h16c4.143,0,7.5-3.358,7.5-7.5S363.643,408,359.5,408z"/>
    <path d="M119.5,408h-16c-4.143,0-7.5,3.358-7.5,7.5s3.357,7.5,7.5,7.5h16c4.143,0,7.5-3.358,7.5-7.5S123.643,408,119.5,408z"/>
    <path d="M144,351.5c0,4.142,3.357,7.5,7.5,7.5h16c4.143,0,7.5-3.358,7.5-7.5s-3.357-7.5-7.5-7.5h-16
		C147.357,344,144,347.358,144,351.5z"/>
    <path d="M192,351.5c0,4.142,3.357,7.5,7.5,7.5h16c4.143,0,7.5-3.358,7.5-7.5s-3.357-7.5-7.5-7.5h-16
		C195.357,344,192,347.358,192,351.5z"/>
    <path d="M431.5,264H391v-33h10.234c3.138,9.29,11.93,16,22.266,16c12.958,0,23.5-10.542,23.5-23.5v-32
		c0-12.958-10.542-23.5-23.5-23.5c-10.336,0-19.128,6.71-22.266,16H367V23.5C367,10.542,356.458,0,343.5,0h-224
		C106.542,0,96,10.542,96,23.5V184H61.766c-3.138-9.29-11.93-16-22.266-16C26.542,168,16,178.542,16,191.5v32
		c0,12.958,10.542,23.5,23.5,23.5c10.336,0,19.128-6.71,22.266-16H72v33H31.5C14.131,264,0,278.131,0,295.5v136
		C0,448.869,14.131,463,31.5,463h400c17.369,0,31.5-14.131,31.5-31.5v-136C463,278.131,448.869,264,431.5,264z M63,216v-17h337v17
		H63z M310.992,231c-2.537,9.543-9.866,18.499-21.293,25.771C274.266,266.591,253.597,272,231.5,272s-42.766-5.409-58.198-15.229
		c-11.427-7.272-18.757-16.227-21.293-25.771H310.992z M423.5,183c4.687,0,8.5,3.813,8.5,8.5v32c0,4.687-3.813,8.5-8.5,8.5
		s-8.5-3.813-8.5-8.5v-32C415,186.813,418.813,183,423.5,183z M111,23.5c0-4.687,3.813-8.5,8.5-8.5h224c4.687,0,8.5,3.813,8.5,8.5
		V184H111V23.5z M39.5,232c-4.687,0-8.5-3.813-8.5-8.5v-32c0-4.687,3.813-8.5,8.5-8.5s8.5,3.813,8.5,8.5v32
		C48,228.187,44.187,232,39.5,232z M448,431.5c0,9.098-7.401,16.5-16.5,16.5h-400c-9.099,0-16.5-7.402-16.5-16.5v-136
		c0-9.098,7.401-16.5,16.5-16.5h48c4.143,0,7.5-3.358,7.5-7.5V231h49.645c2.522,14.709,12.453,28.147,28.604,38.425
		C183.058,280.758,206.586,287,231.5,287s48.442-6.242,66.252-17.575c16.151-10.278,26.082-23.716,28.604-38.425H376v40.5
		c0,4.142,3.357,7.5,7.5,7.5h48c9.099,0,16.5,7.402,16.5,16.5V431.5z"/>
    <path d="M311.5,144h-160c-4.143,0-7.5,3.358-7.5,7.5s3.357,7.5,7.5,7.5h160c4.143,0,7.5-3.358,7.5-7.5S315.643,144,311.5,144z"/>
    <path d="M311.5,104h-160c-4.143,0-7.5,3.358-7.5,7.5s3.357,7.5,7.5,7.5h160c4.143,0,7.5-3.358,7.5-7.5S315.643,104,311.5,104z"/>
    <path d="M311.5,64h-160c-4.143,0-7.5,3.358-7.5,7.5s3.357,7.5,7.5,7.5h160c4.143,0,7.5-3.358,7.5-7.5S315.643,64,311.5,64z"/>
  </g>
</svg>